<?xml version="1.0" encoding="UTF-8"?>
<!DOCTYPE svg PUBLIC "-//W3C//DTD SVG 1.1//EN" "http://www.w3.org/Graphics/SVG/1.1/DTD/svg11.dtd">
<!-- Creator: CorelDRAW X7 -->
<svg xmlns="http://www.w3.org/2000/svg" xml:space="preserve" width="4.4532mm" height="4.2333mm" version="1.1" style="shape-rendering:geometricPrecision; text-rendering:geometricPrecision; image-rendering:optimizeQuality; fill-rule:evenodd; clip-rule:evenodd"
viewBox="0 0 279 265"
 xmlns:xlink="http://www.w3.org/1999/xlink">
 <defs>
  <style type="text/css">
   <![CDATA[
    .fil0 {fill:#FFA3A5}
   ]]>
  </style>
 </defs>
 <g id="Layer_x0020_1">
  <metadata id="CorelCorpID_0Corel-Layer"/>
  <path class="fil0" d="M139 37c7,0 13,2 17,5 10,-3 17,-9 17,-15 0,-9 -15,-16 -34,-16 -18,0 -33,7 -33,16 0,6 7,12 16,15 5,-3 11,-5 17,-5zm-4 65c-8,1 -15,4 -20,7 -25,-53 -62,-31 -69,-11 -5,16 -6,50 -10,65 -8,39 -23,49 -36,57 25,19 56,-9 66,-27 6,15 -4,19 -11,28 1,4 8,3 12,2 17,-7 23,-17 25,-30 0,10 0,19 -1,28 -13,4 -24,32 11,42 12,3 63,3 75,0 35,-10 24,-38 11,-42 -1,-9 -1,-18 -1,-28 2,13 8,23 25,30 4,1 11,2 12,-2 -7,-9 -17,-13 -11,-28 10,18 41,46 66,27 -13,-8 -28,-18 -36,-57 -4,-15 -5,-49 -10,-65 -7,-20 -44,-42 -69,11 -5,-3 -12,-6 -20,-7l-9 0zm120 110c-19,0 -38,-22 -45,-35 -3,9 -7,19 -6,25 1,6 2,9 -1,7 -14,-11 -14,-50 -18,-66 -4,-16 -10,-22 -14,-28 17,-39 48,-25 53,-10 3,10 6,34 7,45 2,30 15,56 24,62zm-231 0c19,0 38,-22 44,-35 4,9 8,19 7,25 -2,6 -2,9 1,7 14,-11 13,-50 17,-66 4,-16 10,-22 14,-28 -17,-39 -47,-25 -52,-10 -3,10 -6,34 -7,45 -2,30 -15,56 -24,62zm112 -98c-40,5 -29,75 -33,111 -9,2 -18,21 8,28 10,2 47,2 57,0 25,-7 17,-26 8,-28 -4,-36 7,-106 -33,-111l-7 0zm26 -68c5,6 9,14 9,22 0,17 -14,31 -32,31 -17,0 -31,-14 -31,-31 0,-8 4,-16 9,-22 -16,-4 -27,-12 -27,-21 0,-14 22,-25 49,-25 28,0 50,11 50,25 0,9 -11,17 -27,21zm-23 4c10,0 18,8 18,18 0,10 -8,18 -18,18 -9,0 -17,-8 -17,-18 0,-10 8,-18 17,-18z"/>
 </g>
</svg>
