<?xml version="1.0" encoding="UTF-8"?>
<!DOCTYPE svg PUBLIC "-//W3C//DTD SVG 1.1//EN" "http://www.w3.org/Graphics/SVG/1.1/DTD/svg11.dtd">
<!-- Creator: CorelDRAW X7 -->
<svg xmlns="http://www.w3.org/2000/svg" xml:space="preserve" width="4.1726mm" height="4.2332mm" version="1.1" style="shape-rendering:geometricPrecision; text-rendering:geometricPrecision; image-rendering:optimizeQuality; fill-rule:evenodd; clip-rule:evenodd"
viewBox="0 0 37 38"
 xmlns:xlink="http://www.w3.org/1999/xlink">
 <defs>
  <style type="text/css">
   <![CDATA[
    .fil0 {fill:#7CB000}
   ]]>
  </style>
 </defs>
 <g id="Layer_x0020_1">
  <metadata id="CorelCorpID_0Corel-Layer"/>
  <path class="fil0" d="M20 0l17 6 -17 8 -15 -8 0 11 3 5 -8 0 4 -5 0 -11 -1 0 17 -6zm9 12c1,5 1,11 1,16 1,13 -21,13 -20,0 1,-5 1,-11 2,-16l8 5c3,-2 6,-3 9,-5zm-1 8l-8 3 -7 -3 -1 7c-1,11 17,11 16,0l0 -7zm-15 -3l7 4 7 -4 0 -2 -7 4 -7 -4 0 2zm7 -14l11 3 -11 5 -10 -5 10 -3z"/>
 </g>
</svg>
