<?xml version="1.0" encoding="UTF-8"?>
<!DOCTYPE svg PUBLIC "-//W3C//DTD SVG 1.1//EN" "http://www.w3.org/Graphics/SVG/1.1/DTD/svg11.dtd">
<!-- Creator: CorelDRAW X7 -->
<svg xmlns="http://www.w3.org/2000/svg" xml:space="preserve" width="4.2056mm" height="4.2333mm" version="1.1" style="shape-rendering:geometricPrecision; text-rendering:geometricPrecision; image-rendering:optimizeQuality; fill-rule:evenodd; clip-rule:evenodd"
viewBox="0 0 32 32"
 xmlns:xlink="http://www.w3.org/1999/xlink">
 <defs>
  <style type="text/css">
   <![CDATA[
    .fil0 {fill:#31DDAB}
   ]]>
  </style>
 </defs>
 <g id="Layer_x0020_1">
  <metadata id="CorelCorpID_0Corel-Layer"/>
  <path class="fil0" d="M8 13l7 5 17 -15 0 3 -17 15 -7 -5 0 -3zm4 19c-3,0 -12,-7 -12,-11 0,-5 0,-11 0,-16l12 -5 12 5 0 3 -2 1 0 -3 -10 -4 -10 4c0,5 0,10 0,14 0,4 8,10 10,10 2,0 10,-6 10,-10l0 -3 2 -2 0 6c0,4 -10,11 -12,11z"/>
 </g>
</svg>
